<mxfile host="app.diagrams.net" agent="Mozilla/5.0 (Windows NT 10.0; Win64; x64) AppleWebKit/537.36 (KHTML, like Gecko) Chrome/133.0.0.0 Safari/537.36 Edg/133.0.0.0" version="26.1.0">
  <diagram id="C5RBs43oDa-KdzZeNtuy" name="Page-1">
    <mxGraphModel dx="664" dy="893" grid="1" gridSize="10" guides="1" tooltips="1" connect="1" arrows="1" fold="1" page="1" pageScale="1" pageWidth="827" pageHeight="1169" math="0" shadow="0">
      <root>
        <mxCell id="WIyWlLk6GJQsqaUBKTNV-0" />
        <mxCell id="WIyWlLk6GJQsqaUBKTNV-1" parent="WIyWlLk6GJQsqaUBKTNV-0" />
        <mxCell id="qk1etIl7_oHUETeA9Fub-7" style="edgeStyle=orthogonalEdgeStyle;rounded=0;orthogonalLoop=1;jettySize=auto;html=1;entryX=0.5;entryY=0;entryDx=0;entryDy=0;" edge="1" parent="WIyWlLk6GJQsqaUBKTNV-1" source="qk1etIl7_oHUETeA9Fub-0" target="qk1etIl7_oHUETeA9Fub-1">
          <mxGeometry relative="1" as="geometry" />
        </mxCell>
        <mxCell id="qk1etIl7_oHUETeA9Fub-0" value="AllocateNode&lt;div&gt;Начало&lt;/div&gt;" style="strokeWidth=2;html=1;shape=mxgraph.flowchart.terminator;whiteSpace=wrap;" vertex="1" parent="WIyWlLk6GJQsqaUBKTNV-1">
          <mxGeometry x="120" y="40" width="160" height="40" as="geometry" />
        </mxCell>
        <mxCell id="qk1etIl7_oHUETeA9Fub-10" style="edgeStyle=orthogonalEdgeStyle;rounded=0;orthogonalLoop=1;jettySize=auto;html=1;entryX=0.5;entryY=0;entryDx=0;entryDy=0;" edge="1" parent="WIyWlLk6GJQsqaUBKTNV-1" source="qk1etIl7_oHUETeA9Fub-1" target="qk1etIl7_oHUETeA9Fub-8">
          <mxGeometry relative="1" as="geometry" />
        </mxCell>
        <mxCell id="qk1etIl7_oHUETeA9Fub-1" value="Nodes,&amp;nbsp;FreeList" style="shape=parallelogram;perimeter=parallelogramPerimeter;whiteSpace=wrap;html=1;fixedSize=1;" vertex="1" parent="WIyWlLk6GJQsqaUBKTNV-1">
          <mxGeometry x="120" y="120" width="160" height="40" as="geometry" />
        </mxCell>
        <mxCell id="qk1etIl7_oHUETeA9Fub-2" value="" style="strokeWidth=2;html=1;shape=mxgraph.flowchart.annotation_2;align=left;labelPosition=right;pointerEvents=1;" vertex="1" parent="WIyWlLk6GJQsqaUBKTNV-1">
          <mxGeometry x="320" y="110" width="50" height="60" as="geometry" />
        </mxCell>
        <mxCell id="qk1etIl7_oHUETeA9Fub-4" value="" style="endArrow=none;html=1;rounded=0;exitX=1;exitY=0.5;exitDx=0;exitDy=0;entryX=0;entryY=0.5;entryDx=0;entryDy=0;entryPerimeter=0;" edge="1" parent="WIyWlLk6GJQsqaUBKTNV-1" source="qk1etIl7_oHUETeA9Fub-1" target="qk1etIl7_oHUETeA9Fub-2">
          <mxGeometry width="50" height="50" relative="1" as="geometry">
            <mxPoint x="320" y="480" as="sourcePoint" />
            <mxPoint x="370" y="430" as="targetPoint" />
          </mxGeometry>
        </mxCell>
        <mxCell id="qk1etIl7_oHUETeA9Fub-6" value="Nodes - массив для хранения узлов&lt;div&gt;FreeList - индекс первого свободного узла&lt;/div&gt;" style="text;html=1;align=center;verticalAlign=middle;whiteSpace=wrap;rounded=0;" vertex="1" parent="WIyWlLk6GJQsqaUBKTNV-1">
          <mxGeometry x="350" y="110" width="150" height="60" as="geometry" />
        </mxCell>
        <mxCell id="qk1etIl7_oHUETeA9Fub-11" style="edgeStyle=orthogonalEdgeStyle;rounded=0;orthogonalLoop=1;jettySize=auto;html=1;entryX=0.5;entryY=0;entryDx=0;entryDy=0;" edge="1" parent="WIyWlLk6GJQsqaUBKTNV-1" source="qk1etIl7_oHUETeA9Fub-8" target="qk1etIl7_oHUETeA9Fub-9">
          <mxGeometry relative="1" as="geometry" />
        </mxCell>
        <mxCell id="qk1etIl7_oHUETeA9Fub-8" value="FreeList = -1" style="rhombus;whiteSpace=wrap;html=1;" vertex="1" parent="WIyWlLk6GJQsqaUBKTNV-1">
          <mxGeometry x="120" y="200" width="160" height="40" as="geometry" />
        </mxCell>
        <mxCell id="qk1etIl7_oHUETeA9Fub-9" value="Вывод&lt;div&gt;Ошибка: нет свободных узлов.&lt;/div&gt;" style="shape=parallelogram;perimeter=parallelogramPerimeter;whiteSpace=wrap;html=1;fixedSize=1;" vertex="1" parent="WIyWlLk6GJQsqaUBKTNV-1">
          <mxGeometry x="120" y="600" width="160" height="40" as="geometry" />
        </mxCell>
        <mxCell id="qk1etIl7_oHUETeA9Fub-20" style="edgeStyle=orthogonalEdgeStyle;rounded=0;orthogonalLoop=1;jettySize=auto;html=1;entryX=0.5;entryY=0;entryDx=0;entryDy=0;" edge="1" parent="WIyWlLk6GJQsqaUBKTNV-1" source="qk1etIl7_oHUETeA9Fub-12" target="qk1etIl7_oHUETeA9Fub-17">
          <mxGeometry relative="1" as="geometry" />
        </mxCell>
        <mxCell id="qk1etIl7_oHUETeA9Fub-12" value="Result := FreeList" style="rounded=0;whiteSpace=wrap;html=1;" vertex="1" parent="WIyWlLk6GJQsqaUBKTNV-1">
          <mxGeometry x="320" y="280" width="160" height="40" as="geometry" />
        </mxCell>
        <mxCell id="qk1etIl7_oHUETeA9Fub-13" value="" style="endArrow=none;html=1;rounded=0;exitX=1;exitY=0.5;exitDx=0;exitDy=0;" edge="1" parent="WIyWlLk6GJQsqaUBKTNV-1" source="qk1etIl7_oHUETeA9Fub-8">
          <mxGeometry width="50" height="50" relative="1" as="geometry">
            <mxPoint x="320" y="480" as="sourcePoint" />
            <mxPoint x="400" y="220" as="targetPoint" />
          </mxGeometry>
        </mxCell>
        <mxCell id="qk1etIl7_oHUETeA9Fub-15" value="" style="endArrow=classic;html=1;rounded=0;entryX=0.5;entryY=0;entryDx=0;entryDy=0;" edge="1" parent="WIyWlLk6GJQsqaUBKTNV-1" target="qk1etIl7_oHUETeA9Fub-12">
          <mxGeometry width="50" height="50" relative="1" as="geometry">
            <mxPoint x="400" y="220" as="sourcePoint" />
            <mxPoint x="370" y="430" as="targetPoint" />
          </mxGeometry>
        </mxCell>
        <mxCell id="qk1etIl7_oHUETeA9Fub-21" style="edgeStyle=orthogonalEdgeStyle;rounded=0;orthogonalLoop=1;jettySize=auto;html=1;entryX=0.5;entryY=0;entryDx=0;entryDy=0;" edge="1" parent="WIyWlLk6GJQsqaUBKTNV-1" source="qk1etIl7_oHUETeA9Fub-17" target="qk1etIl7_oHUETeA9Fub-19">
          <mxGeometry relative="1" as="geometry" />
        </mxCell>
        <mxCell id="qk1etIl7_oHUETeA9Fub-17" value="FreeList := Nodes[FreeList].Next" style="rounded=0;whiteSpace=wrap;html=1;" vertex="1" parent="WIyWlLk6GJQsqaUBKTNV-1">
          <mxGeometry x="320" y="360" width="160" height="40" as="geometry" />
        </mxCell>
        <mxCell id="qk1etIl7_oHUETeA9Fub-25" style="edgeStyle=orthogonalEdgeStyle;rounded=0;orthogonalLoop=1;jettySize=auto;html=1;entryX=0.5;entryY=0;entryDx=0;entryDy=0;" edge="1" parent="WIyWlLk6GJQsqaUBKTNV-1" source="qk1etIl7_oHUETeA9Fub-18" target="qk1etIl7_oHUETeA9Fub-24">
          <mxGeometry relative="1" as="geometry" />
        </mxCell>
        <mxCell id="qk1etIl7_oHUETeA9Fub-18" value="Inc(Count)" style="rounded=0;whiteSpace=wrap;html=1;" vertex="1" parent="WIyWlLk6GJQsqaUBKTNV-1">
          <mxGeometry x="320" y="520" width="160" height="40" as="geometry" />
        </mxCell>
        <mxCell id="qk1etIl7_oHUETeA9Fub-22" style="edgeStyle=orthogonalEdgeStyle;rounded=0;orthogonalLoop=1;jettySize=auto;html=1;" edge="1" parent="WIyWlLk6GJQsqaUBKTNV-1" source="qk1etIl7_oHUETeA9Fub-19" target="qk1etIl7_oHUETeA9Fub-18">
          <mxGeometry relative="1" as="geometry" />
        </mxCell>
        <mxCell id="qk1etIl7_oHUETeA9Fub-19" value="Nodes[Result].Next := -1" style="rounded=0;whiteSpace=wrap;html=1;" vertex="1" parent="WIyWlLk6GJQsqaUBKTNV-1">
          <mxGeometry x="320" y="440" width="160" height="40" as="geometry" />
        </mxCell>
        <mxCell id="qk1etIl7_oHUETeA9Fub-24" value="Вывод&lt;div&gt;result&lt;/div&gt;" style="shape=parallelogram;perimeter=parallelogramPerimeter;whiteSpace=wrap;html=1;fixedSize=1;" vertex="1" parent="WIyWlLk6GJQsqaUBKTNV-1">
          <mxGeometry x="320" y="600" width="160" height="40" as="geometry" />
        </mxCell>
        <mxCell id="qk1etIl7_oHUETeA9Fub-26" value="AllocateNode&lt;div&gt;Конец&lt;/div&gt;" style="strokeWidth=2;html=1;shape=mxgraph.flowchart.terminator;whiteSpace=wrap;" vertex="1" parent="WIyWlLk6GJQsqaUBKTNV-1">
          <mxGeometry x="120" y="680" width="160" height="40" as="geometry" />
        </mxCell>
        <mxCell id="qk1etIl7_oHUETeA9Fub-27" style="edgeStyle=orthogonalEdgeStyle;rounded=0;orthogonalLoop=1;jettySize=auto;html=1;entryX=0.5;entryY=0;entryDx=0;entryDy=0;entryPerimeter=0;" edge="1" parent="WIyWlLk6GJQsqaUBKTNV-1" source="qk1etIl7_oHUETeA9Fub-9" target="qk1etIl7_oHUETeA9Fub-26">
          <mxGeometry relative="1" as="geometry" />
        </mxCell>
        <mxCell id="qk1etIl7_oHUETeA9Fub-28" value="" style="endArrow=none;html=1;rounded=0;entryX=0.5;entryY=1;entryDx=0;entryDy=0;" edge="1" parent="WIyWlLk6GJQsqaUBKTNV-1" target="qk1etIl7_oHUETeA9Fub-24">
          <mxGeometry width="50" height="50" relative="1" as="geometry">
            <mxPoint x="400" y="660" as="sourcePoint" />
            <mxPoint x="370" y="560" as="targetPoint" />
          </mxGeometry>
        </mxCell>
        <mxCell id="qk1etIl7_oHUETeA9Fub-29" value="" style="endArrow=none;html=1;rounded=0;" edge="1" parent="WIyWlLk6GJQsqaUBKTNV-1">
          <mxGeometry width="50" height="50" relative="1" as="geometry">
            <mxPoint x="200" y="660" as="sourcePoint" />
            <mxPoint x="400" y="660" as="targetPoint" />
          </mxGeometry>
        </mxCell>
        <mxCell id="qk1etIl7_oHUETeA9Fub-30" value="Нет" style="text;html=1;align=center;verticalAlign=middle;whiteSpace=wrap;rounded=0;" vertex="1" parent="WIyWlLk6GJQsqaUBKTNV-1">
          <mxGeometry x="270" y="190" width="60" height="30" as="geometry" />
        </mxCell>
        <mxCell id="qk1etIl7_oHUETeA9Fub-31" value="Да" style="text;html=1;align=center;verticalAlign=middle;whiteSpace=wrap;rounded=0;" vertex="1" parent="WIyWlLk6GJQsqaUBKTNV-1">
          <mxGeometry x="190" y="240" width="60" height="30" as="geometry" />
        </mxCell>
      </root>
    </mxGraphModel>
  </diagram>
</mxfile>
